<?xml version="1.0" standalone="no"?>
<!DOCTYPE svg PUBLIC "-//W3C//DTD SVG 20010904//EN"
 "http://www.w3.org/TR/2001/REC-SVG-20010904/DTD/svg10.dtd">
<svg version="1.0" xmlns="http://www.w3.org/2000/svg"
 width="700.000000pt" height="700.000000pt" viewBox="0 0 700.000000 700.000000"
 preserveAspectRatio="xMidYMid meet">
<metadata>
Created by potrace 1.14, written by Peter Selinger 2001-2017
</metadata>
<g transform="translate(0.000000,700.000000) scale(0.100000,-0.100000)"
fill="#000000" stroke="none">
<path d="M3658 6063 l-758 -758 -395 395 -395 395 -362 -362 -361 -361 114
-120 c123 -128 167 -197 194 -297 30 -118 14 -262 -42 -369 -20 -37 -172 -197
-568 -596 -581 -584 -614 -622 -674 -780 -89 -230 -78 -485 29 -705 59 -120
115 -186 389 -460 l251 -250 -452 -452 -453 -453 358 -357 357 -358 452 452
453 452 280 -277 c232 -230 294 -285 362 -325 247 -147 550 -166 808 -52 135
59 187 105 745 660 399 396 559 548 596 568 107 56 251 72 369 42 100 -27 169
-71 297 -194 l120 -114 361 361 362 362 -395 395 -395 395 758 758 c416 416
757 762 757 767 0 6 -106 116 -235 245 l-235 235 -763 -763 -762 -762 -723
722 -722 723 762 762 763 763 -235 235 c-129 129 -239 235 -245 235 -5 0 -351
-341 -767 -757z m290 -410 l-698 -698 -110 110 -110 110 697 697 698 698 110
-110 110 -110 -697 -697z m2515 -1121 l107 -107 -698 -698 -697 -697 -110 110
-110 110 695 695 c382 382 697 695 700 695 3 0 54 -48 113 -108z"/>
</g>
</svg>
