<?xml version="1.0" standalone="no"?>
<!DOCTYPE svg PUBLIC "-//W3C//DTD SVG 20010904//EN"
 "http://www.w3.org/TR/2001/REC-SVG-20010904/DTD/svg10.dtd">
<svg version="1.0" xmlns="http://www.w3.org/2000/svg"
 width="512.000000pt" height="512.000000pt" viewBox="0 0 512.000000 512.000000"
 preserveAspectRatio="xMidYMid meet">
<metadata>
Created by potrace 1.14, written by Peter Selinger 2001-2017
</metadata>
<g transform="translate(0.000000,512.000000) scale(0.100000,-0.100000)"
fill="#000000" stroke="none">
<path d="M1223 5109 c-237 -40 -438 -227 -498 -464 -13 -52 -15 -308 -15
-2085 0 -2243 -5 -2073 66 -2218 41 -85 129 -183 212 -238 31 -21 95 -52 142
-68 l85 -31 1330 0 c1467 0 1375 -4 1520 65 142 69 248 186 308 342 l32 83 3
2025 c2 1363 -1 2045 -8 2086 -31 185 -158 357 -325 440 -148 73 -34 68 -1490
70 -721 1 -1333 -2 -1362 -7z m1663 -332 c232 -59 447 -173 616 -327 74 -67
93 -107 85 -177 -9 -81 -70 -133 -155 -133 -55 0 -67 7 -169 94 -135 117 -266
184 -452 233 -82 22 -119 26 -256 26 -138 1 -172 -2 -249 -22 -181 -47 -335
-128 -466 -246 -79 -71 -127 -92 -186 -80 -51 9 -110 68 -119 119 -13 66 8
107 91 185 184 172 432 294 694 341 156 29 425 22 566 -13z m-146 -602 c187
-46 388 -182 410 -279 31 -139 -119 -248 -236 -170 -21 14 -50 36 -64 49 -70
63 -191 105 -308 105 -101 0 -221 -49 -297 -121 -88 -83 -208 -69 -260 32 -38
73 -11 147 80 222 188 155 448 218 675 162z m-112 -619 c44 -23 74 -62 87
-113 10 -39 17 -49 36 -51 236 -28 504 -133 706 -275 103 -73 269 -234 340
-330 326 -444 401 -995 203 -1501 -161 -412 -509 -746 -931 -894 -177 -62
-273 -77 -499 -77 -157 0 -226 5 -295 18 -856 173 -1402 988 -1229 1836 124
609 620 1092 1238 1206 l120 21 4 35 c11 106 129 172 220 125z"/>
<path d="M1920 2230 c-69 -42 -75 -58 -78 -227 -4 -169 2 -192 60 -237 70 -52
168 -37 219 35 23 32 24 41 24 191 0 143 -2 159 -21 184 -52 70 -139 93 -204
54z"/>
<path d="M3065 2236 c-37 -17 -70 -52 -84 -89 -6 -16 -11 -85 -11 -155 0 -104
4 -135 20 -169 21 -46 62 -77 117 -88 46 -8 120 28 150 74 21 31 23 45 23 181
0 136 -2 150 -22 180 -13 18 -35 42 -49 53 -34 25 -105 31 -144 13z"/>
<path d="M2308 1540 c-88 -27 -138 -93 -138 -180 0 -125 137 -241 322 -272
159 -28 344 47 431 175 45 66 36 160 -21 220 -57 60 -66 62 -327 64 -132 1
-252 -2 -267 -7z"/>
</g>
</svg>
